<?xml version="1.0" standalone="no"?>
<!DOCTYPE svg PUBLIC "-//W3C//DTD SVG 20010904//EN"
 "http://www.w3.org/TR/2001/REC-SVG-20010904/DTD/svg10.dtd">
<svg version="1.0" xmlns="http://www.w3.org/2000/svg"
 width="609.000000pt" height="660.000000pt" viewBox="0 0 609.000000 660.000000"
 preserveAspectRatio="xMidYMid meet">

<g transform="translate(0.000000,660.000000) scale(0.100000,-0.100000)"
fill="#000000" stroke="none">
<path d="M16 6518 c-19 -257 -12 -1061 14 -1473 99 -1566 400 -2651 971 -3495
474 -700 1107 -1187 1986 -1525 l73 -28 72 28 c420 161 785 359 1096 593 154
117 184 143 331 280 443 415 806 985 1042 1635 22 62 49 135 59 163 73 201
179 627 245 985 141 763 218 2051 168 2812 l-6 97 -3023 0 -3022 0 -6 -72z
m6021 -359 c17 -1063 -70 -2059 -248 -2839 -342 -1494 -1068 -2492 -2224
-3060 -220 -107 -466 -210 -506 -210 -64 0 -512 203 -744 338 -1460 846 -2159
2380 -2255 4952 -11 300 -13 933 -3 1093 l6 107 2976 2 c1637 2 2979 0 2984
-3 4 -3 10 -174 14 -380z"/>
<path d="M230 6120 l0 -300 2835 0 2835 0 0 300 0 300 -2835 0 -2835 0 0 -300z
m3269 144 c153 -50 174 -189 39 -258 -158 -80 -465 -47 -528 56 -57 94 19 190
171 217 78 14 254 6 318 -15z m1563 3 c38 -16 78 -50 78 -67 0 -6 -30 -10 -70
-10 -38 0 -70 4 -70 9 0 16 -61 31 -126 31 -94 0 -142 -24 -96 -49 10 -5 65
-15 122 -21 204 -21 260 -43 260 -99 0 -65 -79 -94 -260 -95 -149 0 -202 10
-250 50 -48 41 -40 54 33 54 49 0 66 -4 79 -19 10 -11 37 -23 63 -27 62 -9
171 0 191 16 30 26 -7 40 -142 56 -199 23 -244 40 -244 94 0 38 52 78 117 90
72 13 272 5 315 -13z m-4385 -102 c32 -63 60 -115 63 -115 3 0 29 52 59 115
l54 115 104 0 103 0 0 -155 0 -155 -70 0 -70 0 0 123 0 122 -58 -122 -57 -123
-70 0 -71 0 -57 123 -57 122 0 -122 0 -123 -70 0 -70 0 0 155 0 155 105 0 105
0 57 -115z m993 85 l0 -30 -173 0 -174 0 5 -30 4 -30 160 0 159 0 -3 -27 -3
-28 -160 -5 -160 -5 0 -32 0 -33 182 0 183 0 0 -30 0 -30 -250 0 -250 0 0 155
0 155 240 0 240 0 0 -30z m610 0 l0 -30 -100 0 -100 0 0 -125 0 -125 -70 0
-70 0 0 125 0 125 -100 0 -100 0 0 30 0 30 270 0 270 0 0 -30z m219 -27 l-3
-58 125 0 124 0 3 58 3 57 69 0 70 0 0 -155 0 -155 -70 0 -70 0 0 70 0 71
-127 -3 -127 -3 3 -67 2 -68 -75 0 -76 0 0 155 0 155 76 0 75 0 -2 -57z m1706
30 c89 -47 117 -118 73 -183 -56 -83 -119 -100 -363 -100 l-175 0 0 156 0 156
213 -4 c194 -3 215 -5 252 -25z m325 -128 l0 -156 -72 3 -73 3 -3 140 c-1 76
0 145 2 152 4 9 27 13 76 13 l70 0 0 -155z m1220 125 l0 -30 -100 0 -100 0 0
-125 0 -125 -70 0 -70 0 0 125 0 125 -100 0 -100 0 0 30 0 30 270 0 270 0 0
-30z"/>
<path d="M3218 6219 c-44 -13 -88 -60 -88 -95 0 -13 12 -37 28 -54 50 -56 211
-65 283 -17 58 39 57 106 -2 149 -31 24 -163 33 -221 17z"/>
<path d="M3870 6125 l0 -95 100 0 c140 0 180 23 180 103 0 27 -7 41 -31 61
-29 25 -37 26 -140 26 l-109 0 0 -95z"/>
<path d="M210 5510 c0 -659 89 -1516 220 -2105 170 -769 466 -1449 848 -1945
346 -449 776 -802 1298 -1063 123 -62 404 -187 420 -187 2 0 4 143 4 318 l0
318 -37 13 c-83 29 -281 135 -386 205 -822 551 -1441 1729 -1647 3136 -55 379
-84 823 -78 1228 l3 262 -323 3 -322 2 0 -185z m473 -287 l5 -67 -77 -100
c-42 -56 -89 -118 -104 -139 l-29 -38 109 2 108 2 3 -62 c2 -43 -1 -63 -10
-66 -7 -2 -77 -5 -156 -7 l-142 -3 0 76 0 76 95 125 c52 69 95 129 95 133 0 4
-45 5 -99 3 l-99 -3 -6 44 c-11 82 -13 80 57 84 34 2 103 4 153 5 l91 2 6 -67z
m54 -880 c10 -67 10 -68 -17 -98 l-28 -30 14 -95 c19 -134 20 -136 58 -159 35
-22 40 -32 52 -115 l7 -48 -89 48 c-48 26 -118 64 -154 83 -36 20 -73 41 -83
46 -12 8 -22 36 -30 86 l-14 76 130 136 c71 75 133 137 137 137 4 0 11 -30 17
-67z m94 -790 c43 -39 75 -94 105 -183 27 -79 27 -263 0 -303 -42 -62 -119
-74 -182 -29 -85 62 -167 293 -149 422 6 45 41 118 51 108 2 -3 13 -34 23 -70
15 -55 16 -68 4 -84 -31 -43 -1 -178 52 -231 57 -57 134 -40 155 36 19 73 -30
220 -79 236 -12 4 -24 25 -35 63 -9 32 -16 61 -16 65 0 18 34 4 71 -30z m282
-775 c15 -34 24 -65 20 -69 -8 -6 -247 -96 -271 -101 -8 -2 -23 21 -37 59
l-24 62 137 55 c75 30 140 55 143 55 3 1 18 -27 32 -61z m153 -370 c13 -26 24
-50 24 -53 0 -2 -18 -17 -40 -31 -23 -16 -40 -35 -40 -46 0 -17 72 -170 92
-195 7 -8 20 -5 51 13 23 13 48 24 54 24 12 0 63 -88 63 -108 0 -5 -39 -30
-87 -55 -49 -25 -107 -56 -130 -69 -28 -15 -45 -20 -52 -13 -19 20 -179 332
-190 370 -16 58 -14 100 7 125 22 27 54 23 89 -10 29 -26 30 -26 25 14 -4 31
0 37 37 62 23 14 41 34 41 43 1 21 23 -7 56 -71z m343 -808 c46 -61 88 -110
93 -110 5 0 30 16 54 37 25 20 48 32 52 27 5 -5 24 -30 44 -55 l37 -46 -119
-91 c-65 -51 -122 -92 -127 -92 -7 1 -91 106 -237 298 -48 63 -48 64 -29 83
21 21 20 22 219 -239 4 -5 54 29 54 37 0 4 -38 56 -85 116 -79 102 -83 110
-68 127 9 10 19 18 22 18 3 0 44 -50 90 -110z m466 -342 c49 -39 54 -46 54
-85 1 -40 4 -43 96 -116 94 -74 95 -74 134 -64 37 10 41 8 94 -34 l57 -43 -38
-11 c-20 -6 -105 -28 -187 -50 l-151 -38 -63 49 -63 49 4 192 c1 106 4 193 6
193 2 0 27 -19 57 -42z"/>
<path d="M586 4116 l-50 -44 63 -32 c35 -17 65 -30 66 -28 6 6 -18 148 -24
148 -3 -1 -28 -20 -55 -44z"/>
<path d="M1090 2255 c-7 -8 -9 -23 -5 -37 7 -20 93 -198 100 -206 3 -3 63 25
73 33 7 6 -100 191 -119 208 -26 21 -33 21 -49 2z"/>
<path d="M2124 1047 c-3 -8 -4 -39 -2 -69 l3 -56 65 20 65 20 -35 30 c-71 60
-90 71 -96 55z"/>
<path d="M976 5663 c-16 -102 1 -643 34 -1033 121 -1421 572 -2514 1322 -3206
208 -192 396 -327 651 -469 66 -36 70 -37 110 -25 108 32 361 181 517 304 97
77 303 278 389 381 545 646 927 1567 1091 2628 61 396 97 941 85 1275 l-7 182
-2093 0 -2092 0 -7 -37z m4154 -307 c0 -481 -29 -817 -111 -1281 -231 -1299
-818 -2386 -1569 -2907 -86 -59 -249 -150 -328 -181 l-62 -26 -83 46 c-428
235 -817 593 -1106 1018 -366 536 -621 1231 -749 2040 -67 416 -93 733 -99
1208 l-5 387 2056 0 2056 0 0 -304z"/>
<path d="M2820 5010 l0 -440 -552 -2 -553 -3 -3 -277 -2 -278 555 0 555 0 0
-373 0 -374 -202 -6 c-112 -4 -333 -7 -491 -7 l-288 0 42 -62 c70 -105 143
-181 236 -247 166 -119 295 -168 463 -177 52 -3 108 -11 124 -17 36 -13 65
-75 66 -140 0 -60 -33 -159 -68 -205 -28 -37 -91 -71 -130 -72 -31 0 -42 -34
-42 -135 l0 -84 78 -85 77 -85 68 0 67 -1 0 -300 0 -300 250 0 250 0 0 300 0
300 171 0 172 0 -6 116 c-3 64 -7 117 -9 118 -2 1 -23 8 -46 15 -128 37 -222
220 -192 374 17 90 55 152 129 214 136 112 291 170 479 180 l112 6 0 111 0
112 -38 37 -38 37 -367 0 -367 0 0 375 0 375 595 0 595 0 -2 278 -3 277 -590
2 -590 3 -3 440 -2 440 -250 0 -250 0 0 -440z m460 -45 l0 -445 590 0 590 0 0
-235 0 -235 -590 0 -590 0 0 -395 0 -395 -30 0 -30 0 2 428 3 427 593 3 592 2
0 170 0 170 -595 0 -595 0 0 440 0 440 -150 0 -150 0 0 -440 0 -440 -550 0
-550 0 0 -170 0 -170 550 0 550 0 0 -430 0 -430 -30 0 -30 0 0 395 0 395 -550
0 -550 0 0 235 0 235 548 2 547 3 3 443 2 442 210 0 210 0 0 -445z m785 -1765
c18 -20 17 -20 -686 -20 -683 0 -705 1 -729 20 -25 19 -21 20 686 20 698 0
711 0 729 -20z m-1474 -26 l59 -35 0 -79 c0 -91 1 -90 -103 -90 -176 0 -305
30 -443 104 -35 19 -64 30 -64 26 0 -12 86 -81 150 -122 144 -92 316 -158 411
-158 21 0 41 -4 44 -10 15 -25 -161 -2 -265 34 -135 47 -308 168 -397 279 -27
34 -53 68 -57 75 -6 9 57 12 300 12 l306 0 59 -36z m1499 -102 l0 -69 -102 -6
c-115 -7 -171 -20 -273 -64 -75 -32 -172 -91 -194 -117 -12 -14 -60 -16 -422
-16 l-409 0 0 170 0 170 700 0 700 0 0 -68z m-670 -360 c0 -4 -6 -16 -14 -27
-8 -11 -21 -45 -30 -74 -40 -136 0 -295 99 -391 19 -18 35 -36 35 -39 0 -4
-160 -6 -355 -6 -195 0 -355 2 -355 5 0 2 15 20 34 40 45 46 82 117 97 186 10
44 10 68 -1 122 -13 66 -50 155 -70 167 -34 21 12 25 275 25 157 0 285 -3 285
-8z m-555 -124 c24 -53 27 -70 23 -132 -3 -40 -14 -91 -25 -117 -25 -57 -83
-123 -123 -139 -27 -11 -32 -9 -84 36 l-56 48 46 22 c63 31 90 58 126 132 26
52 33 80 36 148 5 98 14 99 57 2z m-195 -502 l0 -60 -45 44 c-43 43 -45 46
-45 104 l0 60 45 -44 c43 -43 45 -46 45 -104z m284 36 c-30 -25 -56 -68 -63
-105 l-7 -32 -77 -3 -77 -3 0 81 0 80 123 0 c117 -1 121 -1 101 -18z m325 -8
c27 -34 27 -84 1 -112 -19 -20 -31 -22 -125 -22 -96 0 -105 2 -119 22 -9 12
-16 38 -16 58 0 20 7 46 16 58 14 20 23 22 119 22 100 0 104 -1 124 -26z m331
-54 l0 -80 -100 0 -100 0 0 25 c0 31 -25 93 -47 117 -15 17 -10 18 115 18
l132 0 0 -80z m-690 -370 l0 -250 150 0 150 0 0 250 0 250 30 0 30 0 -2 -277
-3 -278 -207 -3 -208 -2 0 280 0 280 30 0 30 0 0 -250z"/>
<path d="M5274 5342 c0 -385 -11 -557 -54 -897 -95 -736 -288 -1398 -585
-2000 -227 -461 -462 -801 -757 -1096 -220 -220 -439 -376 -664 -474 l-79 -34
-3 -316 -2 -315 32 15 c18 8 67 28 108 46 503 212 897 470 1251 819 210 207
420 477 568 730 25 41 56 95 71 120 85 146 217 434 297 650 271 737 413 1584
453 2710 5 151 10 301 10 333 l0 57 -322 0 -323 0 -1 -348z m444 -169 l-3
-248 -34 -3 -34 -3 6 180 5 181 -29 0 -29 0 0 -160 0 -160 -36 0 -37 0 7 160
8 160 -36 0 -36 0 0 -63 c0 -35 -3 -119 -7 -185 l-6 -122 -29 0 -29 0 1 241
c1 132 4 247 7 255 4 11 36 14 159 14 l154 0 -2 -247z m-138 -376 l125 -12 -2
-30 c-24 -298 -32 -356 -61 -415 -35 -71 -103 -78 -142 -14 -27 43 -35 126
-23 247 l9 87 -53 0 -53 0 0 68 c0 38 3 72 7 75 8 9 42 8 193 -6z m-107 -602
c179 -26 167 -22 167 -58 0 -18 -3 -49 -6 -69 -8 -45 -10 -46 -171 -23 -156
22 -154 22 -149 48 3 12 8 43 11 70 7 55 0 54 148 32z m-73 -247 c-2 -57 -19
-109 -42 -128 -41 -32 -79 -208 -54 -249 15 -24 34 10 71 127 45 141 67 192
93 215 28 26 70 18 96 -16 41 -55 19 -273 -39 -386 -38 -75 -105 -119 -105
-68 1 50 21 107 49 134 46 47 67 213 26 213 -9 0 -30 -52 -60 -142 -26 -79
-56 -158 -67 -176 -38 -62 -84 -65 -119 -9 -38 63 -18 275 37 398 39 86 115
144 114 87z m-43 -628 c18 -10 42 -38 54 -62 19 -37 21 -53 16 -128 -12 -179
-107 -363 -199 -385 l-26 -7 22 72 c17 55 28 75 48 86 36 19 70 96 76 176 4
61 3 68 -21 92 -32 32 -83 35 -119 6 -53 -41 -93 -203 -60 -242 14 -18 -23
-151 -41 -146 -27 9 -47 73 -47 148 0 87 16 155 58 243 67 143 156 198 239
147z m-206 -653 c68 -46 75 -160 18 -308 -74 -191 -198 -307 -289 -269 -43 18
-78 63 -85 113 -20 135 103 397 220 468 41 26 95 24 136 -4z m-345 -682 c65
-43 121 -79 123 -81 2 -2 -12 -27 -31 -56 -19 -29 -65 -99 -101 -154 -70 -107
-112 -151 -166 -173 -29 -13 -35 -12 -59 6 -61 46 -47 127 48 273 34 51 60 93
58 94 -47 28 -89 59 -86 64 18 40 73 112 83 108 7 -2 66 -39 131 -81z m-347
-497 c19 -101 34 -188 35 -194 1 -7 -23 -37 -53 -69 l-54 -57 -111 7 c-157 10
-266 22 -273 29 -3 3 16 30 43 60 47 52 51 54 90 49 41 -5 41 -5 118 83 74 84
77 90 71 126 -6 35 -3 42 40 93 26 30 50 55 54 55 4 0 22 -82 40 -182z m-433
-454 c49 -63 90 -121 91 -127 2 -14 -94 -90 -107 -85 -4 2 -40 45 -80 96 l-71
93 -42 -31 c-23 -16 -82 -61 -130 -100 l-88 -71 -19 23 c-11 13 -19 25 -19 28
0 3 49 43 110 90 60 47 142 111 182 142 40 31 74 57 78 57 3 1 45 -51 95 -115z"/>
<path d="M5546 4613 c-9 -55 -7 -156 3 -171 15 -24 45 -9 57 28 6 19 14 68 18
108 l7 72 -39 0 c-38 0 -40 -2 -46 -37z"/>
<path d="M4965 2516 c-52 -56 -80 -122 -80 -194 0 -52 4 -66 20 -78 65 -48
124 -20 177 84 65 126 46 222 -44 222 -33 0 -46 -6 -73 -34z"/>
<path d="M4687 1787 c-54 -86 -64 -118 -43 -136 24 -20 50 2 106 86 28 42 49
77 48 78 -2 1 -17 11 -34 23 l-32 22 -45 -73z"/>
<path d="M4297 1354 l-48 -52 63 -9 c35 -5 64 -8 66 -8 4 3 -21 109 -27 116
-3 3 -28 -18 -54 -47z"/>
</g>
</svg>
